<?xml version="1.0" encoding="utf-8"?>
<!-- Generator: Adobe Illustrator 24.0.3, SVG Export Plug-In . SVG Version: 6.00 Build 0)  -->
<svg version="1.1" id="レイヤー_1" xmlns="http://www.w3.org/2000/svg" xmlns:xlink="http://www.w3.org/1999/xlink" x="0px"
	 y="0px" viewBox="0 0 323 117" style="enable-background:new 0 0 323 117;" xml:space="preserve">
<style type="text/css">
	.st0{fill:#333;}
</style>
<path class="st0" d="M72.1,84.4c-3.6,8.6-13.7,14.1-26.4,14.4c-0.1,0-0.3,0-0.4-0.1c-0.1,0-0.2-0.1-0.3-0.2
	c-0.1-0.1-0.2-0.2-0.2-0.3c0-0.1-0.1-0.2-0.1-0.4v-7.7c0-0.3,0.1-0.5,0.3-0.7c0.2-0.2,0.4-0.3,0.7-0.3c8.5-0.3,13.5-3.6,15.6-8.6
	c1-2.6,1.1-5.5,0.2-8.1c-2.2-6-8.2-7.4-16.8-10c-9.7-2.9-20.8-5.3-24.5-15.5c-1-2.7-1.3-5.5-1.1-8.4c0.2-2.8,1-5.6,2.4-8.1
	c6-11.4,21.4-11.8,23.2-11.8c5.3,0,10.6,1.1,15.4,3.2c4.9,2.1,9.3,5.2,12.9,9.1c0.2,0.2,0.3,0.4,0.3,0.7s-0.1,0.5-0.3,0.7l-6.2,6.1
	c-0.1,0.1-0.2,0.2-0.3,0.2C66.4,39,66.3,39,66.2,39c-0.1,0-0.3,0-0.4-0.1c-0.1-0.1-0.2-0.2-0.3-0.3c-2.5-3.1-5.6-5.7-9.2-7.4
	c-3.6-1.8-7.5-2.7-11.5-2.8c-0.1,0-9.3,0-12.8,6.7c-1.4,2.7-1.7,5.9-0.7,8.8c2.1,5.7,8,7.1,16.4,9.6c9.9,3,21.1,5.3,25,15.8
	C74.3,74.2,74.2,79.6,72.1,84.4z"/>
<path class="st0" d="M119.7,46.2h13c0.3,0,0.5-0.1,0.7-0.3c0.2-0.2,0.3-0.4,0.3-0.7v-7.4c0-0.3-0.1-0.5-0.3-0.7
	c-0.2-0.2-0.4-0.3-0.7-0.3h-13.2c-16.4,0.1-29.8,14-29.8,31c0,17,13.4,30.9,29.8,31h13.2c0.3,0,0.5-0.1,0.7-0.3
	c0.2-0.2,0.3-0.4,0.3-0.7v-7.4c0-0.3-0.1-0.5-0.3-0.7c-0.2-0.2-0.4-0.3-0.7-0.3h-13c-2.5,0-5.1-0.6-7.4-1.6c-2.3-1.1-4.4-2.6-6-4.5
	c-2.7-3.1-4.6-6.8-5.3-10.9c0-0.1,0-0.3,0-0.4s0.1-0.3,0.2-0.4c0.1-0.1,0.2-0.2,0.3-0.3c0.1-0.1,0.3-0.1,0.4-0.1h23.8
	c0.3,0,0.5-0.1,0.7-0.3c0.2-0.2,0.3-0.4,0.3-0.7v-7.4c0-0.3-0.1-0.5-0.3-0.7c-0.2-0.2-0.4-0.3-0.7-0.3h-23.2c-0.1,0-0.3,0-0.4-0.1
	c-0.1-0.1-0.3-0.2-0.3-0.3c-0.1-0.1-0.1-0.3-0.2-0.4s0-0.3,0-0.4c0.9-3.1,2.5-6,4.7-8.4c1.7-1.9,3.7-3.5,6-4.6
	C114.6,46.8,117.1,46.3,119.7,46.2z"/>
<path class="st0" d="M205.4,59.9c0,21.5-16.8,38.9-37.5,39h-16.1c-0.3,0-0.5-0.1-0.7-0.3c-0.2-0.2-0.3-0.4-0.3-0.7v-7.6
	c0-0.3,0.1-0.5,0.3-0.7c0.2-0.2,0.4-0.3,0.7-0.3h16c3.5,0,6.9-0.8,10.1-2.2c3.2-1.5,6-3.6,8.2-6.2c5.1-5.8,7.9-13.3,7.8-21
	c0.1-7.7-2.7-15.1-7.8-20.9c-4.9-5.5-11.5-8.5-18.3-8.5h-16c-0.3,0-0.5-0.1-0.7-0.3c-0.2-0.2-0.3-0.4-0.3-0.7v-7.7
	c0-0.3,0.1-0.5,0.3-0.7c0.2-0.2,0.4-0.3,0.7-0.3h16.1C188.6,21,205.4,38.5,205.4,59.9z"/>
<path class="st0" d="M248.7,46.2h13c0.3,0,0.5-0.1,0.7-0.3c0.2-0.2,0.3-0.4,0.3-0.7v-7.4c0-0.3-0.1-0.5-0.3-0.7
	c-0.2-0.2-0.4-0.3-0.7-0.3h-13.2c-16.4,0.1-29.8,14-29.8,31s13.4,30.9,29.8,31h13.2c0.3,0,0.5-0.1,0.7-0.3c0.2-0.2,0.3-0.4,0.3-0.7
	v-7.4c0-0.3-0.1-0.5-0.3-0.7c-0.2-0.2-0.4-0.3-0.7-0.3h-13c-2.5,0-5.1-0.6-7.4-1.6c-2.3-1.1-4.4-2.6-6-4.5
	c-2.7-3.1-4.6-6.8-5.3-10.9c0-0.1,0-0.3,0-0.4c0-0.1,0.1-0.3,0.2-0.4c0.1-0.1,0.2-0.2,0.3-0.3c0.1-0.1,0.3-0.1,0.4-0.1h23.8
	c0.1,0,0.3,0,0.4-0.1c0.1,0,0.2-0.1,0.3-0.2c0.1-0.1,0.2-0.2,0.2-0.3c0-0.1,0.1-0.2,0.1-0.4v-7.4c0-0.3-0.1-0.5-0.3-0.7
	c-0.2-0.2-0.4-0.3-0.7-0.3h-23.3c-0.2,0-0.3,0-0.4-0.1c-0.1-0.1-0.2-0.2-0.3-0.3c-0.1-0.1-0.1-0.3-0.2-0.4c0-0.1,0-0.3,0-0.4
	c0.9-3.1,2.5-6,4.7-8.4c1.7-1.9,3.7-3.5,6-4.6C243.7,46.8,246.2,46.3,248.7,46.2z"/>
<path class="st0" d="M303.6,62.7l-2.2-0.6l-1.4-0.4c-5.6-1.6-9.3-2.7-10.6-6.4c-0.6-2-0.4-4.1,0.5-6c2.4-4.6,8.9-4.6,9-4.6
	c6.1,0,12.3,3.2,15.6,8.1c0.1,0.1,0.2,0.2,0.3,0.3c0.1,0.1,0.3,0.1,0.4,0.1c0.1,0,0.3,0,0.4-0.1c0.1,0,0.3-0.1,0.4-0.2l5.9-5.8
	c0.2-0.2,0.3-0.4,0.3-0.7c0-0.2-0.1-0.5-0.2-0.7c-2.9-3.2-6.4-5.8-10.4-7.6c-4-1.8-8.2-2.7-12.6-2.7c-1.4,0-13.8,0.3-18.7,9.6
	c-1.1,2-1.8,4.3-2,6.6c-0.2,2.3,0.1,4.6,0.9,6.8c2.7,7.6,10.6,9.9,17.5,11.9l1.9,0.6l1.5,0.5c5.6,1.7,9.4,2.8,10.8,6.6l0.1,0.2
	c0.5,1.8,0.4,3.6-0.2,5.3c-1.6,3.9-5.7,6-11.8,6.1c-0.3,0-0.5,0.1-0.7,0.3c-0.2,0.2-0.3,0.4-0.3,0.7v7.4c0,0.1,0,0.3,0.1,0.4
	c0,0.1,0.1,0.2,0.2,0.3c0.1,0.1,0.2,0.2,0.3,0.2c0.1,0,0.2,0.1,0.4,0.1c10.5-0.1,18.9-4.6,21.9-11.7c1.6-3.9,1.8-8.4,0.3-12.4
	C318.3,67,310.8,64.8,303.6,62.7z"/>
</svg>
