<svg width="323" height="117" viewBox="0 0 323 117" fill="none" xmlns="http://www.w3.org/2000/svg">
<g filter="url(#filter0_d)">
<path d="M71.1042 83.5414C67.4538 92.1592 58.3704 98.6178 45.7087 98.9809C45.5809 98.9843 45.4537 98.9621 45.3346 98.9156C45.2155 98.8691 45.1069 98.7993 45.0153 98.7102C44.9237 98.6212 44.8509 98.5147 44.8012 98.3971C44.7515 98.2795 44.7259 98.1531 44.7259 98.0255V90.3376C44.7259 90.0875 44.8241 89.8473 44.9995 89.6687C45.1749 89.49 45.4135 89.3872 45.6641 89.3822C54.1392 89.0637 58.1554 84.8089 60.2678 79.7834C61.2863 77.186 61.3586 74.314 60.472 71.6688C58.283 65.6369 52.2394 64.2866 43.694 61.6815C33.9999 58.7643 22.8444 56.3885 19.2003 46.1975C18.2421 43.5219 17.8605 40.6746 18.0805 37.8417C18.3004 35.0089 19.117 32.2543 20.4767 29.758C26.4948 18.3121 41.9199 18 43.694 18C49.0116 18.0103 54.2705 19.1095 59.1455 21.2294C64.0204 23.3493 68.4077 26.445 72.036 30.3248C72.2099 30.5042 72.3071 30.744 72.3071 30.9936C72.3071 31.2432 72.2099 31.483 72.036 31.6624L65.8647 37.8089C65.7715 37.9087 65.6577 37.987 65.5312 38.0386C65.4047 38.0902 65.2685 38.1138 65.132 38.1077C64.9955 38.1017 64.8619 38.0661 64.7405 38.0035C64.6191 37.941 64.5127 37.8528 64.4288 37.7452C61.9496 34.6144 58.8019 32.075 55.2149 30.312C51.6279 28.549 47.692 27.6068 43.694 27.5541C43.5855 27.5541 34.4148 27.5541 30.8728 34.2102C29.483 36.9189 29.2148 40.064 30.1261 42.9682C32.213 48.7006 38.1545 50.0446 46.4957 52.5223C56.394 55.5414 67.5559 57.828 71.5127 68.3312C73.2697 73.2766 73.1242 78.697 71.1042 83.5414Z" fill="white"/>
<path d="M118.662 45.344H132.655C132.909 45.344 133.152 45.2433 133.332 45.0641C133.511 44.8849 133.612 44.6419 133.612 44.3885V38.0255C133.612 37.7721 133.511 37.5291 133.332 37.3499C133.152 37.1707 132.909 37.0701 132.655 37.0701H118.502C102.062 37.1529 88.6858 50.0446 88.6858 67.0382C88.6858 84.0319 102.088 97.9172 118.502 98H132.655C132.908 98 133.15 97.9002 133.33 97.7224C133.509 97.5446 133.611 97.3032 133.612 97.051V90.6815C133.612 90.4281 133.511 90.1851 133.332 90.006C133.152 89.8268 132.909 89.7261 132.655 89.7261H121.295C118.749 89.7193 114.812 88.5628 112.5 87.5C110.188 86.4372 107.92 84.4931 106.26 82.5669C103.534 79.4904 101.693 75.7359 100.931 71.7006C100.903 71.5614 100.907 71.4179 100.942 71.2804C100.977 71.1428 101.042 71.0147 101.132 70.9051C101.222 70.7955 101.336 70.7072 101.464 70.6466C101.593 70.5859 101.733 70.5543 101.875 70.5541H125.699C125.953 70.5541 126.196 70.4535 126.376 70.2743C126.555 70.0951 126.656 69.8521 126.656 69.5987V63.1529C126.654 62.9 126.553 62.6579 126.374 62.4791C126.195 62.3003 125.952 62.1991 125.699 62.1975H101.475C101.325 62.1967 101.178 62.1612 101.045 62.0938C100.911 62.0264 100.795 61.9288 100.706 61.8089C100.617 61.689 100.557 61.5501 100.531 61.403C100.505 61.256 100.513 61.1049 100.556 60.9618C101.494 57.8586 103.104 53.9991 105.272 51.586C106.926 49.6492 108.977 48.0895 111.287 47.0126C113.597 45.9357 116.112 45.3666 118.662 45.344Z" fill="white"/>
</g>
<g filter="url(#filter1_d)">
<path d="M72.1042 84.5414C68.4538 93.1592 58.3704 98.6178 45.7087 98.9809C45.5809 98.9843 45.4537 98.9621 45.3346 98.9156C45.2155 98.8691 45.1069 98.7993 45.0153 98.7102C44.9237 98.6212 44.8509 98.5147 44.8012 98.3971C44.7515 98.2795 44.7259 98.1531 44.7259 98.0255V90.3376C44.7259 90.0875 44.8241 89.8473 44.9995 89.6687C45.1749 89.49 45.4135 89.3872 45.6641 89.3822C54.1392 89.0637 59.1554 85.8089 61.2678 80.7834C62.2863 78.186 62.3586 75.314 61.472 72.6688C59.283 66.6369 53.2394 65.2866 44.694 62.6815C34.9999 59.7643 23.8444 57.3885 20.2003 47.1975C19.2421 44.5219 18.8605 41.6746 19.0805 38.8417C19.3004 36.0089 20.117 33.2543 21.4767 30.758C27.4948 19.3121 42.9199 19 44.694 19C50.0116 19.0103 55.2705 20.1095 60.1455 22.2294C65.0204 24.3493 69.4077 27.445 73.036 31.3248C73.2099 31.5042 73.3071 31.744 73.3071 31.9936C73.3071 32.2432 73.2099 32.483 73.036 32.6624L66.8647 38.8089C66.7715 38.9087 66.6577 38.987 66.5312 39.0386C66.4047 39.0902 66.2685 39.1138 66.132 39.1077C65.9955 39.1017 65.8619 39.0661 65.7405 39.0035C65.6191 38.941 65.5127 38.8528 65.4288 38.7452C62.9496 35.6144 59.8019 33.075 56.2149 31.312C52.6279 29.549 48.692 28.6068 44.694 28.5541C44.5855 28.5541 35.4148 28.5541 31.8728 35.2102C30.483 37.9189 30.2148 41.064 31.1261 43.9682C33.213 49.7006 39.1545 51.0446 47.4957 53.5223C57.394 56.5414 68.5559 58.828 72.5127 69.3312C74.2697 74.2766 74.1242 79.697 72.1042 84.5414V84.5414Z" fill="#E5E5E5"/>
</g>
<g filter="url(#filter2_d)">
<path d="M119.662 46.344H132.655C132.909 46.344 133.152 46.2433 133.332 46.0641C133.511 45.8849 133.612 45.6419 133.612 45.3885V38.0255C133.612 37.7721 133.511 37.5291 133.332 37.3499C133.152 37.1707 132.909 37.0701 132.655 37.0701H119.502C103.062 37.1529 89.6858 51.0446 89.6858 68.0382C89.6858 85.0319 103.088 98.9172 119.502 99H132.655C132.908 99 133.15 98.9002 133.33 98.7224C133.509 98.5446 133.611 98.3032 133.612 98.051V90.6815C133.612 90.4281 133.511 90.1851 133.332 90.006C133.152 89.8268 132.909 89.7261 132.655 89.7261H119.662C117.116 89.7193 114.601 89.1657 112.289 88.1029C109.976 87.0401 107.92 85.4931 106.26 83.5669C103.534 80.4904 101.693 76.7359 100.931 72.7006C100.903 72.5614 100.907 72.4179 100.942 72.2804C100.977 72.1428 101.042 72.0147 101.132 71.9051C101.222 71.7955 101.336 71.7072 101.464 71.6466C101.593 71.5859 101.733 71.5543 101.875 71.5541H125.699C125.953 71.5541 126.196 71.4535 126.376 71.2743C126.555 71.0951 126.656 70.8521 126.656 70.5987V63.1529C126.654 62.9 126.553 62.6579 126.374 62.4791C126.195 62.3003 125.952 62.1991 125.699 62.1975H102.475C102.325 62.1967 102.178 62.1612 102.045 62.0938C101.911 62.0264 101.795 61.9288 101.706 61.8089C101.617 61.689 101.557 61.5501 101.531 61.403C101.505 61.256 101.513 61.1049 101.556 60.9618C102.494 57.8586 104.104 54.9991 106.272 52.586C107.926 50.6492 109.977 49.0895 112.287 48.0126C114.597 46.9357 117.112 46.3666 119.662 46.344Z" fill="#E5E5E5"/>
</g>
<path d="M205.396 59.9873C205.396 81.5223 188.618 98.8981 167.877 99H151.743C151.49 99 151.248 98.9002 151.069 98.7224C150.889 98.5446 150.788 98.3032 150.786 98.051V90.4076C150.786 90.1543 150.887 89.9112 151.066 89.7321C151.246 89.5529 151.489 89.4522 151.743 89.4522H167.698C171.18 89.4384 174.619 88.679 177.782 87.2252C180.945 85.7715 183.759 83.6573 186.033 81.0255C191.141 75.2176 193.925 67.7341 193.851 60.0064C193.923 52.3114 191.138 44.8623 186.033 39.0955C181.138 33.586 174.546 30.5669 167.698 30.5669H151.743C151.489 30.5669 151.246 30.4662 151.066 30.287C150.887 30.1079 150.786 29.8649 150.786 29.6115V21.9299C150.786 21.6765 150.887 21.4335 151.066 21.2544C151.246 21.0752 151.489 20.9745 151.743 20.9745H167.883C188.618 21.0828 205.396 38.5605 205.396 59.9873Z" fill="#4F4F4F"/>
<path d="M248.748 46.344H261.741C261.995 46.344 262.239 46.2433 262.418 46.0641C262.598 45.8849 262.699 45.6419 262.699 45.3885V38.0255C262.699 37.7721 262.598 37.5291 262.418 37.3499C262.239 37.1707 261.995 37.0701 261.741 37.0701H248.588C232.155 37.1529 218.753 51.0446 218.753 68.0446C218.753 85.0446 232.155 98.9236 248.569 99.0064H261.722C261.975 99.0064 262.218 98.9066 262.397 98.7288C262.576 98.551 262.678 98.3096 262.68 98.0573V90.6815C262.68 90.4281 262.579 90.1851 262.399 90.0059C262.22 89.8268 261.976 89.7261 261.722 89.7261H248.748C246.202 89.7193 243.688 89.1657 241.375 88.1029C239.063 87.0401 237.006 85.4931 235.346 83.5669C232.621 80.4904 230.78 76.7359 230.017 72.7006C229.99 72.5614 229.994 72.4179 230.029 72.2804C230.063 72.1428 230.128 72.0147 230.219 71.9051C230.309 71.7955 230.422 71.7072 230.551 71.6465C230.679 71.5859 230.82 71.5543 230.962 71.5541H254.785C254.914 71.5576 255.041 71.5352 255.161 71.4883C255.28 71.4414 255.389 71.371 255.481 71.2813C255.573 71.1915 255.645 71.0843 255.695 70.9659C255.744 70.8476 255.769 70.7205 255.768 70.5924V63.1529C255.768 62.9006 255.668 62.6585 255.49 62.4795C255.312 62.3005 255.07 62.1991 254.817 62.1975H231.562C231.412 62.1967 231.265 62.1612 231.131 62.0938C230.998 62.0263 230.882 61.9288 230.793 61.8089C230.703 61.689 230.643 61.5501 230.617 61.403C230.591 61.256 230.6 61.1049 230.643 60.9618C231.577 57.8597 233.182 55.0003 235.346 52.586C237.001 50.6472 239.054 49.0864 241.366 48.0094C243.679 46.9324 246.196 46.3644 248.748 46.344Z" fill="#4F4F4F"/>
<path d="M303.562 62.8089L301.348 62.172L299.969 61.758C294.391 60.1146 290.709 59.0255 289.388 55.3885C288.769 53.4119 288.95 51.2719 289.892 49.4268C292.317 44.8662 298.827 44.8089 298.91 44.8089C304.966 44.8089 311.252 48.051 314.558 52.879C314.638 52.9948 314.742 53.0917 314.863 53.1628C314.985 53.2338 315.12 53.2773 315.26 53.2901C315.401 53.3029 315.542 53.2846 315.674 53.2367C315.806 53.1887 315.927 53.1123 316.026 53.0127L321.878 47.172C322.049 46.9969 322.148 46.7636 322.154 46.519C322.16 46.2744 322.073 46.0366 321.91 45.8535C319.024 42.6167 315.485 40.0244 311.526 38.2463C307.567 36.4682 303.277 35.5443 298.935 35.535C297.538 35.535 285.112 35.8026 280.211 45.0892C279.103 47.1243 278.437 49.3695 278.257 51.6785C278.077 53.9875 278.386 56.3086 279.164 58.4904C281.889 66.1338 289.752 68.4076 296.689 70.4331L298.603 71.0064L300.129 71.465C305.777 73.1592 309.504 74.2739 310.895 78.1019L310.965 78.2994C311.468 80.0545 311.388 81.9251 310.735 83.6306C309.102 87.5159 304.992 89.6115 298.884 89.6879C298.632 89.6912 298.392 89.7934 298.215 89.9722C298.039 90.151 297.94 90.3921 297.94 90.6433V98.0064C297.94 98.1329 297.965 98.2582 298.014 98.375C298.063 98.4917 298.134 98.5976 298.224 98.6865C298.315 98.7754 298.422 98.8455 298.539 98.8927C298.657 98.94 298.783 98.9635 298.91 98.9618C309.408 98.8726 317.813 94.3885 320.838 87.2611C322.473 83.3115 322.594 78.8989 321.176 74.8662C318.311 67.1465 310.805 64.9427 303.562 62.8089Z" fill="#4F4F4F"/>
<defs>
<filter id="filter0_d" x="0" y="0" width="327.21" height="104.981" filterUnits="userSpaceOnUse" color-interpolation-filters="sRGB">
<feFlood flood-opacity="0" result="BackgroundImageFix"/>
<feColorMatrix in="SourceAlpha" type="matrix" values="0 0 0 0 0 0 0 0 0 0 0 0 0 0 0 0 0 0 127 0"/>
<feOffset dx="-6" dy="-6"/>
<feGaussianBlur stdDeviation="6"/>
<feColorMatrix type="matrix" values="0 0 0 0 1 0 0 0 0 1 0 0 0 0 1 0 0 0 0.5 0"/>
<feBlend mode="normal" in2="BackgroundImageFix" result="effect1_dropShadow"/>
<feBlend mode="normal" in="SourceGraphic" in2="effect1_dropShadow" result="shape"/>
</filter>
<filter id="filter1_d" x="13.02" y="13" width="78.7124" height="103.981" filterUnits="userSpaceOnUse" color-interpolation-filters="sRGB">
<feFlood flood-opacity="0" result="BackgroundImageFix"/>
<feColorMatrix in="SourceAlpha" type="matrix" values="0 0 0 0 0 0 0 0 0 0 0 0 0 0 0 0 0 0 127 0"/>
<feOffset dx="6" dy="6"/>
<feGaussianBlur stdDeviation="6"/>
<feColorMatrix type="matrix" values="0 0 0 0 0.772549 0 0 0 0 0.772549 0 0 0 0 0.772549 0 0 0 1 0"/>
<feBlend mode="normal" in2="BackgroundImageFix" result="effect1_dropShadow"/>
<feBlend mode="normal" in="SourceGraphic" in2="effect1_dropShadow" result="shape"/>
</filter>
<filter id="filter2_d" x="83.6858" y="31.0701" width="67.9265" height="85.9299" filterUnits="userSpaceOnUse" color-interpolation-filters="sRGB">
<feFlood flood-opacity="0" result="BackgroundImageFix"/>
<feColorMatrix in="SourceAlpha" type="matrix" values="0 0 0 0 0 0 0 0 0 0 0 0 0 0 0 0 0 0 127 0"/>
<feOffset dx="6" dy="6"/>
<feGaussianBlur stdDeviation="6"/>
<feColorMatrix type="matrix" values="0 0 0 0 0.772549 0 0 0 0 0.772549 0 0 0 0 0.772549 0 0 0 1 0"/>
<feBlend mode="normal" in2="BackgroundImageFix" result="effect1_dropShadow"/>
<feBlend mode="normal" in="SourceGraphic" in2="effect1_dropShadow" result="shape"/>
</filter>
</defs>
</svg>
