<svg width="234" height="63" viewBox="0 0 234 63" fill="none" xmlns="http://www.w3.org/2000/svg">
<path d="M41.4648 51.0317C38.6568 57.6608 30.9003 61.8597 21.1606 62.139C21.0622 62.1416 20.9644 62.1245 20.8728 62.0888C20.7812 62.053 20.6976 61.9993 20.6272 61.9308C20.5567 61.8623 20.5007 61.7804 20.4625 61.6899C20.4243 61.5995 20.4046 61.5022 20.4046 61.4041V55.4903C20.4046 55.2979 20.4801 55.1132 20.615 54.9758C20.7499 54.8383 20.9335 54.7592 21.1263 54.7554C27.6456 54.5104 31.5042 52.0067 33.1291 48.1409C33.9126 46.1429 33.9682 43.9337 33.2862 41.8989C31.6023 37.259 26.9534 36.2203 20.38 34.2164C12.923 31.9724 4.34187 30.1448 1.53872 22.3056C0.801639 20.2475 0.5081 18.0572 0.677331 15.8781C0.846485 13.699 1.47464 11.5801 2.52056 9.65985C7.14987 0.855311 19.0153 0.615234 20.38 0.615234C24.4705 0.623157 28.5158 1.4687 32.2658 3.09939C36.0157 4.73008 39.3906 7.11139 42.1816 10.0958C42.3153 10.2338 42.3901 10.4183 42.3901 10.6103C42.3901 10.8023 42.3153 10.9868 42.1816 11.1248L37.4344 15.8528C37.3627 15.9296 37.2752 15.9898 37.1779 16.0295C37.0806 16.0692 36.9758 16.0874 36.8708 16.0827C36.7658 16.0781 36.663 16.0507 36.5696 16.0025C36.4762 15.9545 36.3944 15.8866 36.3299 15.8038C34.4228 13.3955 32.0015 11.4422 29.2422 10.086C26.483 8.72985 23.4554 8.00508 20.38 7.96454C20.2966 7.96454 13.2422 7.96454 10.5176 13.0846C9.44848 15.1682 9.24218 17.5875 9.94318 19.8215C11.5485 24.2311 16.1189 25.2649 22.5352 27.1708C30.1492 29.4932 38.7353 31.2522 41.779 39.3315C43.1306 43.1357 43.0186 47.3052 41.4648 51.0317Z" fill="white"/>
<path d="M78.0477 21.6492H88.0423C88.2377 21.6492 88.4246 21.5717 88.5631 21.4338C88.7008 21.296 88.7785 21.1091 88.7785 20.9141V15.2503C88.7785 15.0554 88.7008 14.8685 88.5631 14.7306C88.4246 14.5928 88.2377 14.5154 88.0423 14.5154H77.9246C65.2785 14.5791 54.9891 25.265 54.9891 38.337C54.9891 51.4091 65.2985 62.0901 77.9246 62.1538H88.0423C88.2369 62.1538 88.4231 62.077 88.5615 61.9402C88.6992 61.8034 88.7777 61.6178 88.7785 61.4238V55.7549C88.7785 55.56 88.7008 55.3731 88.5631 55.2353C88.4246 55.0974 88.2377 55.02 88.0423 55.02H78.0477C76.0892 55.0148 74.1546 54.5889 72.3762 53.7714C70.5969 52.9538 69.0154 51.7638 67.7385 50.2821C65.6415 47.9156 64.2254 45.0275 63.6392 41.9235C63.6177 41.8164 63.6208 41.706 63.6477 41.6002C63.6746 41.4944 63.7246 41.3958 63.7938 41.3115C63.8631 41.2272 63.9508 41.1593 64.0492 41.1127C64.1485 41.066 64.2562 41.0417 64.3654 41.0415H82.6915C82.8869 41.0415 83.0738 40.9641 83.2123 40.8263C83.35 40.6885 83.4277 40.5015 83.4277 40.3066V34.5791C83.4261 34.3845 83.3485 34.1983 83.2108 34.0608C83.0731 33.9232 82.8861 33.8454 82.6915 33.8441H64.8269C64.7115 33.8435 64.5985 33.8162 64.4962 33.7644C64.3931 33.7125 64.3038 33.6375 64.2354 33.5452C64.1669 33.453 64.1208 33.3461 64.1008 33.233C64.0808 33.1199 64.0869 33.0037 64.12 32.8936C64.8415 30.5065 66.08 28.3069 67.7477 26.4507C69.02 24.9608 70.5977 23.7611 72.3746 22.9327C74.1515 22.1043 76.0862 21.6665 78.0477 21.6492Z" fill="white"/>
<path d="M143.997 32.1441C143.997 48.7095 131.091 62.0755 115.136 62.1539H102.725C102.531 62.1539 102.345 62.0771 102.207 61.9404C102.068 61.8036 101.991 61.6179 101.989 61.4239V55.5444C101.989 55.3495 102.067 55.1625 102.205 55.0248C102.343 54.8869 102.53 54.8094 102.725 54.8094H114.998C117.677 54.7988 120.322 54.2147 122.755 53.0964C125.188 51.9781 127.353 50.3518 129.102 48.3274C133.031 43.8597 135.173 38.1032 135.116 32.1588C135.171 26.2396 133.029 20.5095 129.102 16.0735C125.337 11.8354 120.266 9.51305 114.998 9.51305H102.725C102.53 9.51305 102.343 9.43559 102.205 9.29774C102.067 9.15997 101.989 8.97305 101.989 8.77812V2.8692C101.989 2.67428 102.067 2.48735 102.205 2.34958C102.343 2.21174 102.53 2.13428 102.725 2.13428H115.141C131.091 2.21759 143.997 15.662 143.997 32.1441Z" fill="white"/>
<path d="M177.345 21.6492H187.339C187.535 21.6492 187.722 21.5717 187.86 21.4338C187.998 21.296 188.076 21.1091 188.076 20.9142V15.2503C188.076 15.0554 187.998 14.8685 187.86 14.7306C187.722 14.5928 187.535 14.5154 187.339 14.5154H177.221C164.581 14.5791 154.271 25.265 154.271 38.3419C154.271 51.4188 164.581 62.095 177.207 62.1587H187.325C187.519 62.1587 187.706 62.0819 187.844 61.9451C187.982 61.8084 188.06 61.6227 188.062 61.4286V55.7549C188.062 55.56 187.984 55.3731 187.845 55.2352C187.708 55.0975 187.52 55.02 187.325 55.02H177.345C175.386 55.0148 173.452 54.5889 171.673 53.7714C169.895 52.9538 168.312 51.7638 167.035 50.2821C164.939 47.9156 163.523 45.0275 162.936 41.9235C162.915 41.8164 162.918 41.706 162.945 41.6002C162.971 41.4944 163.021 41.3958 163.091 41.3115C163.161 41.2272 163.248 41.1593 163.347 41.1126C163.445 41.066 163.554 41.0417 163.663 41.0415H181.988C182.088 41.0442 182.185 41.027 182.278 40.9909C182.369 40.9548 182.453 40.9007 182.524 40.8317C182.595 40.7626 182.65 40.6801 182.688 40.5891C182.726 40.4981 182.745 40.4003 182.745 40.3018V34.5791C182.745 34.385 182.668 34.1988 182.531 34.0611C182.394 33.9234 182.208 33.8454 182.013 33.8441H164.125C164.009 33.8435 163.896 33.8162 163.793 33.7644C163.691 33.7125 163.601 33.6375 163.533 33.5452C163.464 33.453 163.418 33.3461 163.398 33.233C163.378 33.1199 163.385 33.0037 163.418 32.8936C164.136 30.5074 165.371 28.3078 167.035 26.4507C168.308 24.9593 169.888 23.7587 171.666 22.9302C173.445 22.1018 175.381 21.6648 177.345 21.6492Z" fill="white"/>
<path d="M219.509 34.3146L217.806 33.8247L216.745 33.5062C212.455 32.2421 209.622 31.4043 208.606 28.6066C208.13 27.0862 208.269 25.44 208.994 24.0207C210.859 20.5126 215.867 20.4685 215.931 20.4685C220.589 20.4685 225.425 22.9624 227.968 26.6763C228.029 26.7653 228.109 26.8399 228.202 26.8946C228.296 26.9492 228.4 26.9826 228.508 26.9925C228.616 27.0023 228.725 26.9882 228.826 26.9514C228.928 26.9145 229.021 26.8557 229.097 26.7791L233.598 22.2863C233.73 22.1516 233.806 21.9721 233.811 21.7839C233.815 21.5958 233.748 21.4129 233.623 21.272C231.403 18.7822 228.681 16.7881 225.635 15.4203C222.59 14.0526 219.29 13.3419 215.95 13.3347C214.875 13.3347 205.317 13.5406 201.547 20.6841C200.695 22.2496 200.182 23.9766 200.044 25.7528C199.905 27.5289 200.143 29.3144 200.742 30.9927C202.838 36.8722 208.886 38.6213 214.222 40.1794L215.695 40.6204L216.868 40.9732C221.213 42.2764 224.08 43.1339 225.15 46.0785L225.204 46.2304C225.591 47.5805 225.529 49.0194 225.027 50.3313C223.771 53.32 220.609 54.932 215.911 54.9908C215.717 54.9933 215.532 55.0719 215.396 55.2095C215.261 55.347 215.185 55.5325 215.185 55.7257V61.3896C215.185 61.4869 215.204 61.5833 215.242 61.6732C215.279 61.7629 215.334 61.8444 215.403 61.9128C215.473 61.9812 215.555 62.0351 215.645 62.0714C215.736 62.1078 215.833 62.1259 215.931 62.1245C224.006 62.0559 230.472 58.6066 232.798 53.124C234.056 50.0859 234.149 46.6916 233.058 43.5895C230.855 37.6513 225.081 35.956 219.509 34.3146Z" fill="white"/>
</svg>
