<?xml version="1.0" encoding="utf-8"?>
<!-- Generator: Adobe Illustrator 22.1.0, SVG Export Plug-In . SVG Version: 6.00 Build 0)  -->
<svg version="1.1" id="レイヤー_1" xmlns="http://www.w3.org/2000/svg" xmlns:xlink="http://www.w3.org/1999/xlink" x="0px"
	 y="0px" viewBox="0 0 338 338" style="enable-background:new 0 0 338 338;" xml:space="preserve">
<style type="text/css">
	.st0{fill:#333333;}
</style>
<path class="st0" d="M303.6,338H34.4c-18.7,0-33.9-15.2-33.9-33.9V34.8c0-18.7,15.2-33.9,33.9-33.9h269.3
	c18.7,0,33.9,15.2,33.9,33.9v269.3C337.5,322.8,322.3,338,303.6,338z M34.4,10.6c-13.4,0-24.2,10.9-24.2,24.2v269.3
	c0,13.4,10.9,24.2,24.2,24.2h269.3c13.4,0,24.2-10.9,24.2-24.2V34.8c0-13.4-10.9-24.2-24.2-24.2H34.4z"/>
<g>
	<path class="st0" d="M170.3,256.8c-7.1,0-13.7-1.3-19.8-4c-6.1-2.7-11.5-6.3-16-10.8c-4.5-4.5-8.2-9.9-10.8-16
		c-2.7-6.1-4-12.7-4-19.8v-29.5V134c0-6.9,1.3-13.4,4-19.5c2.7-6.1,6.3-11.5,10.8-16.1c4.5-4.6,9.9-8.3,16-11c6.1-2.7,12.7-4,19.8-4
		c7.1,0,13.7,1.3,19.8,4c6.1,2.7,11.5,6.3,16,11c4.5,4.6,8.2,10,10.8,16.1c2.7,6.1,4,12.6,4,19.5v6.6h-12.9V134c0-5.2-1-10.1-3-14.6
		c-2-4.5-4.7-8.5-8.1-11.9c-3.4-3.4-7.4-6.1-12-8.1c-4.6-2-9.5-3-14.7-3c-5.2,0-10.1,1-14.8,3c-4.6,2-8.6,4.7-12,8.1
		c-3.4,3.4-6.1,7.3-8.1,11.9s-3,9.4-3,14.6v29.8h10.3v-18.2c0-5,0.7-9.8,2.1-14.2c1.4-4.5,3.3-8.3,5.7-11.6c2.4-3.3,5.2-5.9,8.4-7.8
		c3.3-1.9,6.8-2.9,10.7-2.9h6.6v12.9h-6.6c-3.9,0-7.2,2.4-10,7.1c-2.8,4.7-4.2,10.3-4.2,16.6v18.2v30.8c0,6.4,1.4,11.9,4.2,16.6
		c2.8,4.7,6.1,7.1,10,7.1h6.6v13.1h-6.6c-3.9,0-7.4-1-10.7-2.9c-3.3-1.9-6.1-4.5-8.4-7.8c-2.4-3.3-4.2-7.1-5.7-11.6
		c-1.4-4.5-2.1-9.3-2.1-14.5v-17.9h-10.3v29.5c0,5.2,1,10.1,3,14.8c2,4.6,4.7,8.6,8.1,12c3.4,3.4,7.4,6.1,12,8.1c4.6,2,9.5,3,14.8,3
		c5.2,0,10.1-1,14.7-3c4.6-2,8.6-4.7,12-8.1c3.4-3.4,6.1-7.4,8.1-12c2-4.6,3-9.5,3-14.8v-6.6H221v6.6c0,7.1-1.3,13.7-4,19.8
		c-2.7,6.1-6.3,11.5-10.8,16c-4.5,4.5-9.9,8.2-16,10.8C183.9,255.5,177.3,256.8,170.3,256.8z"/>
</g>
</svg>
