<?xml version="1.0" encoding="utf-8"?>
<!-- Generator: Adobe Illustrator 22.1.0, SVG Export Plug-In . SVG Version: 6.00 Build 0)  -->
<svg version="1.1" id="レイヤー_1" xmlns="http://www.w3.org/2000/svg" xmlns:xlink="http://www.w3.org/1999/xlink" x="0px"
	 y="0px" viewBox="0 0 327 326" style="enable-background:new 0 0 327 326;" xml:space="preserve">
<style type="text/css">
	.st0{fill:#333333;}
</style>
<path class="st0" d="M110.7,236.3l-2.3-4c-1.6-2.9-3.7-5.6-6.1-8c-2.3-2.3-4.8-4.2-7.6-5.8l-3.9-2.3l2.5-4.8
	c10.3-19.9,29.5-56.8,88.2-115.6C250.7,26.6,303.8-1.8,319.5,0.1c2.5,0.3,4.1,1.4,5,2.4c1.1,0.9,2.1,2.5,2.4,5
	c1.9,15.7-26.5,68.8-95.6,137.9c-58.7,58.7-95.7,77.9-115.6,88.2L110.7,236.3z M103.4,212.6c2,1.5,3.9,3.1,5.7,4.9
	c1.9,1.9,3.6,4,5.2,6.2c20-10.5,55.4-30.1,110.3-85C265.1,98.1,287.9,67,299.8,48c14.4-22.9,17.5-34.8,17.7-38.4
	c-3.6,0.2-15.5,3.2-38.4,17.7c-19,11.9-50.1,34.6-90.7,75.2C133.6,157.2,113.9,192.6,103.4,212.6z"/>
<path class="st0" d="M0.1,321.9l5.9-7.9c0.1-0.1,7-9.7,10-25.9c1.1-5.6,1.1-11.6,1.1-17.4c0-13.2,0.1-26.9,11.5-38.3
	c8.8-8.8,20.4-13.6,32.8-13.6c12.4,0,24.1,4.8,32.8,13.6c8.8,8.8,13.6,20.4,13.6,32.8c0,12.4-4.8,24.1-13.6,32.8l0,0
	c-21.7,21.7-81.8,23.5-84.4,23.6L0.1,321.9z M61.4,228.3c-9.9,0-19.1,3.8-26.1,10.8c-8.7,8.7-8.7,19.3-8.7,31.6
	c0,6.2,0,12.7-1.2,19.2c-1.7,9.3-4.6,16.6-7.1,21.7c6-0.5,14.5-1.3,23.6-2.8c22.1-3.7,37.9-9.8,45.6-17.5l0,0
	c7-7,10.8-16.2,10.8-26.1c0-9.9-3.8-19.1-10.8-26.1C80.6,232.1,71.3,228.3,61.4,228.3z"/>
</svg>
