<?xml version="1.0" encoding="utf-8"?>
<!-- Generator: Adobe Illustrator 22.1.0, SVG Export Plug-In . SVG Version: 6.00 Build 0)  -->
<svg version="1.1" id="レイヤー_1" xmlns="http://www.w3.org/2000/svg" xmlns:xlink="http://www.w3.org/1999/xlink" x="0px"
	 y="0px" viewBox="0 0 407 298" style="enable-background:new 0 0 407 298;" xml:space="preserve">
<style type="text/css">
	.st0{fill:#333333;}
</style>
<path class="st0" d="M165.1,297.6c-4.3,0-8.2-0.1-11.6-0.2c-2.1-0.1-3.8-0.1-5.1-0.1c-9.2,0-54.6-11.4-108.6-25.2
	c-17-4.3-33-8.4-35.6-8.9h-4.6V132.2h4.8c34.6,0,93.7-41.4,145.9-77.9C210.8,12,245.5-11.1,257.9,4.8c17.2,22.2-22.2,62.6-67.3,103
	c-4.4,3.9-8.9,7.9-10.5,9.7c2.5,2.1,15.1,8.1,77.5,11.2c40.3,2,85.5,1.9,107.2,1.9l5.5,0c10.1,0,18.6,2.1,24.6,6.1
	c5.9,3.9,9.2,9.5,9.2,15.7c0,10.9-11.1,22.5-31.7,22.5c-43.7,0-89.8,0.6-115.7,2c3,1.8,5.6,3.8,7.8,5.9c6,6,8.8,13.4,7.8,20.9
	c-1.5,11.7-12.5,23.1-31.1,24.9c1.8,5.4,1.7,11.2-0.6,16.8c-3.8,9.2-12.8,16.2-24.2,19c1.7,7.3,0.7,13.6-2.9,18.8
	C204.6,295.7,182.4,297.6,165.1,297.6z M9.4,254.5c4.7,1.1,13.9,3.4,32.9,8.3c36.4,9.3,97.4,24.9,106.2,24.9c1.4,0,3.3,0.1,5.4,0.1
	c13.1,0.4,43.6,1.3,51.7-10.2c2.6-3.7,2.6-8.7,0.1-15.2l-2.3-5.8l6.2-0.7c10.5-1.2,18.9-6.6,22-14.1c2.1-5,1.3-10.2-2.3-14.7
	l-6.6-8.4l10.7,0.6c13,0.7,27.7-4.9,29.2-16.6c1-8-5.8-19-28.3-23.5l-18.8-3.8l18.4-5.6c13.4-4.1,109.4-4.4,138.5-4.4
	c10.8,0,22-4.8,22-12.8c0-2.8-1.7-5.5-4.8-7.6c-3-2-8.9-4.4-19.2-4.4l-5.5,0c-1.3,0-2.6,0-3.8,0c-157.5,0-184.3-9.3-189.7-18.4
	c-1.6-2.7-1.6-5.8,0-8.7l0,0c1-1.9,3.9-4.5,12.9-12.6c12.6-11.3,33.6-30.1,48.9-48.3c9.6-11.4,24.6-32,17.2-41.5
	c-1-1.3-6.1-4.5-29.8,8.8c-17.7,9.9-40.4,25.8-64.5,42.7C104.8,98,47.2,138.3,9.4,141.7V254.5z M4.5,263.3
	C4.5,263.3,4.5,263.3,4.5,263.3L4.5,263.3z"/>
</svg>
