<?xml version="1.0" encoding="utf-8"?>
<!-- Generator: Adobe Illustrator 22.0.1, SVG Export Plug-In . SVG Version: 6.00 Build 0)  -->
<svg version="1.1" id="レイヤー_1" xmlns="http://www.w3.org/2000/svg" xmlns:xlink="http://www.w3.org/1999/xlink" x="0px"
	 y="0px" viewBox="0 0 500 500" style="enable-background:new 0 0 500 500;" xml:space="preserve">
<style type="text/css">
	.st0{display:none;}
	.st1{fill:#FFFFFF;}
</style>
<g id="レイヤー_1_1_" class="st0">
</g>
<g id="レイヤー_2_1_">
	<g>
		<path d="M487.5,361.2c-131,130.5-344,130.5-475,0c-10.7-10.7-13.9-24.6-7.7-29.8C28.6,311.2,52.2,291,76,270.6
			c6.2-5.1,16.3-3.3,23,3.4c83.2,82.9,218.5,82.9,301.7,0c6.7-6.7,16.8-8.5,23-3.4c23.8,20.2,47.4,40.5,71.2,60.9
			C501.4,336.5,498.3,350.5,487.5,361.2z"/>
	</g>
	<path d="M497.2,89.5C472.3,78.3,356,61,281.5,94.3c-4.5,2-7.2,7.2-31.1,7.2s-26.5-5.2-31-7.2c-74.5-33.4-190.8-16-215.7-4.8
		c-4.1,3.9-3.3,29.3,0,34.4c3.3,0,5.9,3.7,7.6,11.1c0,0,6.7,28.9,14.1,50.2s33.9,25.5,90.4,25.5s75.2-10.1,82.7-14.1
		c7.4-4,20.6-32.9,28.8-57.4c3.4-11.3,13.7-16.1,23-16.1c9.5,0,19.8,4.8,23.2,16.1c8.2,24.5,21.5,53.4,28.9,57.4
		c7.4,4,26.2,14.1,82.7,14.1s82.9-4.1,90.4-25.5s14.1-50.2,14.1-50.2c1.7-7.4,4.3-11.1,7.6-11.1C500.5,118.8,501.4,93.3,497.2,89.5z
		 M215.1,142.8c-2,9.4-16.3,47.8-35.2,53.9s-88.2,13.4-125,1.6c-12.6-4.1-24-4.1-32.1-46.8c-9.9-49,5.1-63.2,52.6-67.3
		C100,83.6,160,83.8,188.8,94S221.9,110.3,215.1,142.8z M478.2,151.5c-8,42.7-19.5,42.7-32.1,46.8c-36.8,11.8-106.1,4.5-125-1.6
		s-33.3-44.5-35.2-53.9c-6.7-32.4-2.6-38.4,26.3-48.7c28.9-10.2,88.8-10.6,113.4-9.9C473.1,88.3,488.1,102.5,478.2,151.5z"/>
	<g>
		<g>
			<path class="st1" d="M90.1,361c-2,1.8-4.3,3.2-7.2,3.9c-2.9,0.7-6,0.9-9.1,0.5c-3.3-0.5-6.6-1.5-10-3c-3.4-1.6-6.6-3.8-9.5-6.6
				c-3.9-3.7-6.8-7.7-8.8-11.8c-2-4.3-2.7-8.4-2.3-12.3c0.1-0.7,0.2-1.6,0.4-2.3c13.9,3.8,27.6,6.2,40.9,7.3c-1.3-2-2.8-3.8-4.6-5.9
				c-2.1-2.2-3.7-4.5-4.6-6.8c-1.1-2.4-1.7-4.8-1.7-7.2c-0.1-2.3,0.2-4.5,1.1-6.6c0.9-2.1,2.1-3.8,3.8-5.1c1.8-1.6,3.9-2.6,6.2-3.2
				c2.3-0.5,4.6-0.7,7.1-0.4c2.4,0.2,4.8,1,7.2,2c2.3,1.1,4.5,2.4,6.3,4.1c2.3,2.1,4.1,4.5,5.5,7.2c1.3,2.7,2.1,5.4,2.1,8.2
				c0.1,0.9,0.1,1.8,0.2,2.7c-2-0.1-3.9-0.4-5.9-0.6c0-1-0.1-2-0.1-2.8c-0.1-2-0.6-3.9-1.6-5.9c-1-1.8-2.2-3.5-3.9-5
				c-1.5-1.2-2.9-2.2-4.6-2.9s-3.3-1.1-5-1.3c-1.7-0.1-3.3,0-5,0.4c-1.6,0.4-3,1.2-4.3,2.3c-2.3,2.2-3.5,4.9-3.3,8.2
				c0.2,3.3,1.7,6.5,4.5,9.4c2.6,2.7,4.8,5.4,6.5,8.3c1.7,2.9,2.9,5.7,3.7,8.7s1,5.7,0.6,8.4c-0.4,2.7-1.5,5.1-3.2,7.2
				c-0.1,0.2-0.4,0.4-0.6,0.6C90.5,360.6,90.4,360.7,90.1,361z M56.9,350.9c0.2,0.2,0.5,0.4,0.6,0.6c0.2,0.2,0.5,0.5,0.7,0.7
				c2.2,2.1,4.6,3.7,7.3,4.9c2.6,1.2,5.1,2,7.7,2.2c2.4,0.2,4.8,0.1,7-0.6c2.2-0.6,3.9-1.8,5.2-3.4c3-3.4,3.5-7.8,1.8-12.9
				c-12.2-0.7-24.6-2.6-37.3-5.6C50.4,341.6,52.6,346.4,56.9,350.9z"/>
			<path class="st1" d="M120.5,400.9c-0.4-0.7-0.4-1.3,0-1.8c11.3-19.1,22.2-38.7,32.4-58.4c0.4-0.6,0.7-1,1.5-1.2
				c0.6-0.1,1.3-0.1,2,0.2c12.3,5.9,25.2,10.6,38.5,14.1c0.6,0.1,1.2,0.5,1.6,1.1c0.4,0.5,0.5,1.1,0.2,1.8c-0.1,0.6-0.5,1-1.1,1.3
				c-0.6,0.2-1.2,0.4-2,0.2c-12.7-3.4-25.1-7.8-37-13.3c-3.5,7.2-7.1,14.3-10.7,21.3c7.9,3.7,16,7,24.3,9.8c0.7,0.2,1.3,0.7,1.7,1.2
				c0.4,0.6,0.5,1.2,0.2,1.7c-0.2,0.6-0.7,1.1-1.5,1.3c-0.7,0.2-1.5,0.2-2.2,0c-8.4-2.9-16.6-6.2-24.6-10
				c-5.2,10-10.6,19.9-16.1,29.8c15.1,7.2,31,13.2,47.1,17.6c0.9,0.2,1.5,0.6,2,1.2c0.5,0.6,0.6,1.2,0.5,1.7
				c-0.2,0.6-0.7,1.1-1.5,1.3c-0.7,0.2-1.6,0.2-2.4,0c-17.4-4.9-34.5-11.3-50.9-19.4C121.5,402.1,120.9,401.6,120.5,400.9z"/>
			<path class="st1" d="M278.1,430.1c-16.2-18.7-29.8-38.5-40.5-59.1c-1.7,19.5-3.9,39-6.6,58.5c-0.1,0.7-0.5,1.2-1.2,1.6
				c-0.7,0.4-1.6,0.5-2.4,0.5c-1-0.1-1.8-0.4-2.4-0.9c-0.6-0.5-0.9-1.1-0.7-1.7c3.5-22.1,6.5-44.1,8.8-66.2c0.1-0.7,0.4-1.2,1-1.6
				c0.5-0.4,1.2-0.6,2-0.5c0.2,0,0.5,0,0.7,0c1,0.1,1.7,0.5,2.2,1.3c10.5,20.6,23.8,40.6,39.8,59.1c-0.6-19.8-1.7-39.4-3.3-58.9
				c0-0.7,0.1-1.2,0.6-1.7c0.5-0.5,1.1-0.7,1.8-0.9c0.7-0.1,1.3,0.1,1.8,0.5c0.5,0.4,0.9,0.9,1,1.6c2.3,22.1,3.9,44.4,5,66.6
				c0,0.7-0.2,1.2-0.9,1.8c-0.6,0.5-1.5,0.9-2.3,1c-0.4,0-0.9,0.1-1.2,0.1C279.9,431.2,278.8,430.9,278.1,430.1z"/>
			<path class="st1" d="M373.3,349.6c1.1,2.1,1.7,4.4,1.7,6.8s-0.4,4.9-1.2,7.3c-0.9,2.4-2.2,4.9-4,7.2s-4,4.5-6.6,6.3
				c9.6,5.6,19.8,10.7,30.2,15.4c0.7,0.2,1,0.7,1,1.3c0,0.7-0.4,1.3-1,2.1c-0.5,0.5-1,0.9-1.5,1.1c-1.3,0.7-2.4,0.9-3.3,0.4
				c-11-5.1-21.6-10.7-31.6-16.8c-0.1,0.1-0.4,0.1-0.5,0.2c-0.1,0.1-0.4,0.2-0.5,0.2c-7,2.9-14,5.6-21.2,7.9
				c2.4,8.9,4.6,17.8,6.8,26.8c0.1,0.6,0,1.3-0.6,2c-0.5,0.6-1.2,1.1-2.2,1.3c-1,0.4-1.8,0.4-2.6,0.1c-0.7-0.2-1.2-0.7-1.3-1.3
				c-4.8-21.8-10.1-43.4-16.1-64.9c-0.1-0.6-0.1-1.2,0.2-1.8c0.4-0.6,1-1,1.7-1.2c6.8-2.2,13.7-4.8,20.5-7.7
				c3.2-1.3,6.2-2.2,9.4-2.6c3.2-0.4,6.2-0.2,9,0.4s5.5,1.7,7.8,3.3C370.3,345.1,372.1,347.2,373.3,349.6z M354.7,377
				c2.8-1.2,5.4-2.8,7.4-4.8s3.8-4,5-6.2c1.2-2.2,2-4.5,2.1-6.8c0.2-2.3-0.2-4.5-1.1-6.5c-1-2.1-2.3-3.7-4.1-5
				c-1.8-1.2-3.9-2.2-6.1-2.7c-2.2-0.5-4.6-0.6-7.1-0.4c-2.4,0.2-5,0.9-7.4,2c-6.1,2.6-12.2,5-18.3,7.1c3.2,10.4,6.1,20.7,8.9,31.1
				C340.9,382.6,347.8,379.9,354.7,377z"/>
			<path class="st1" d="M442.1,363.6c-0.9,0.7-1.7,1.1-2.6,1.2c-0.9,0.1-1.5-0.1-1.8-0.7c-12.4-18.5-25.5-36.7-39-54.4
				c-0.4-0.5-0.5-1.2-0.4-1.8c0.1-0.7,0.6-1.3,1.2-2c0.6-0.5,1.2-0.7,2-0.9c0.7,0,1.2,0.2,1.7,0.7c13.9,17.3,27.3,35.1,40.2,53.4
				c0.4,0.6,0.5,1.2,0.1,2.1C443.4,362.2,442.9,362.9,442.1,363.6z"/>
		</g>
	</g>
	<circle cx="298.1" cy="307.3" r="5.6"/>
</g>
<g id="レイヤー_3">
</g>
<g id="レイヤー_4">
</g>
</svg>
